<svg xmlns="http://www.w3.org/2000/svg" viewBox="0 0 48 48"><path d="M23.32,37.73a1,1,0,0,0,1.36,0C25.22,37.23,38,25.33,38,16a14,14,0,0,0-28,0C10,25.33,22.78,37.23,23.32,37.73ZM24,4A12,12,0,0,1,36,16c0,7.31-9.37,17-12,19.61C21.37,33,12,23.31,12,16A12,12,0,0,1,24,4Zm8,12a8,8,0,1,0-8,8A8,8,0,0,0,32,16ZM18,16a6,6,0,1,1,6,6A6,6,0,0,1,18,16Zm6,23c-2.34,0-14,.17-14,3.5S21.66,46,24,46s14-.17,14-3.5S26.34,39,24,39Zm0,5c-6.51,0-10.5-.88-11.72-1.5C13.5,41.88,17.49,41,24,41s10.5.88,11.72,1.5C34.5,43.12,30.51,44,24,44Z" data-name="39 Pin Point, Location, Map"/></svg>